<svg width="120" height="120" viewBox="0 0 120 120" xmlns="http://www.w3.org/2000/svg">
  <rect width="120" height="120" rx="28" fill="#0f2419"/>
  <path d="M60 18c-14 0-26 9-31 22 8 4 14 13 14 23 0 9-4 17-10 22 5 4 11 6 18 6 16 0 29-13 29-29S76 18 60 18z" fill="#d84b1f"/>
  <path d="M49 33c0 0 8 7 12 13 4 6 4 13 2 20-2-1-4-3-5-5-2-4-3-10-7-14-3-3-8-8-8-8 0 0 2 0 6-6z" fill="#f5c46b"/>
  <path d="M58 51c10 0 19 4 25 10-7 2-14 4-21 4-8 0-15-2-21-4 6-6 13-10 17-10z" fill="#5f8f2e"/>
  <circle cx="80" cy="44" r="8" fill="#f5c46b"/>
</svg>
